<svg viewBox="0 0 360 360" xmlns="http://www.w3.org/2000/svg">
  <defs>
    <linearGradient id="topFace" x1="0" y1="0" x2="1" y2="1">
      <stop offset="0%" stop-color="#c9aef7"/>
      <stop offset="100%" stop-color="#a186de"/>
    </linearGradient>
    <linearGradient id="leftFace" x1="0" y1="0" x2="1" y2="1">
      <stop offset="0%" stop-color="#c9aef7"/>
      <stop offset="100%" stop-color="#a186de"/>
    </linearGradient>
    <linearGradient id="rightFace" x1="0" y1="0" x2="1" y2="1">
      <stop offset="0%" stop-color="#c9aef7"/>
      <stop offset="100%" stop-color="#a186de"/>
    </linearGradient>
    <linearGradient id="edgeGrad" x1="0" y1="0" x2="1" y2="1">
      <stop offset="0%" stop-color="#ffd9f2"/>
      <stop offset="35%" stop-color="#d8c8ff"/>
      <stop offset="70%" stop-color="#bcd6ff"/>
      <stop offset="100%" stop-color="#adf5e6"/>
    </linearGradient>
    <linearGradient id="neonGrad" x1="0" y1="0" x2="1" y2="1">
      <stop offset="0%" stop-color="#d685ff"/>
      <stop offset="50%" stop-color="#b158f2"/>
      <stop offset="100%" stop-color="#8a3ade"/>
    </linearGradient>
    <clipPath id="topClip">
      <polygon points="180,40 300,105 180,170 60,105"/>
    </clipPath>
    <filter id="glow" x="-70%" y="-70%" width="240%" height="240%">
      <feGaussianBlur stdDeviation="3.2" result="blur"/>
      <feMerge>
        <feMergeNode in="blur"/>
        <feMergeNode in="blur"/>
        <feMergeNode in="SourceGraphic"/>
      </feMerge>
    </filter>
  </defs>
  <polygon points="60,105 180,170 180,300 60,235" fill="url(#leftFace)" stroke="url(#edgeGrad)" stroke-width="5" stroke-linejoin="round"/>
  <polygon points="300,105 180,170 180,300 300,235" fill="url(#rightFace)" stroke="url(#edgeGrad)" stroke-width="5" stroke-linejoin="round"/>
  <polygon points="180,40 300,105 180,170 60,105" fill="url(#topFace)" stroke="url(#edgeGrad)" stroke-width="5" stroke-linejoin="round"/>
  <g clip-path="url(#topClip)">
    <path d="M 103,105 Q 180,61 257,105 Q 180,149 103,105 Z" fill="#f4f1f8" stroke="#3a3a3a" stroke-width="2.5"/>
    <circle cx="180" cy="105" r="22" fill="#4a3222"/>
    <circle cx="180" cy="105" r="12.5" fill="#1e130b"/>
    <circle cx="184.5" cy="100" r="4" fill="#f4f1f8" opacity="0.85"/>
  </g>
  <g transform="matrix(1.2,0.65,0,1.3,60,105)">
    <text x="50" y="42" font-family="monospace" font-weight="700" font-size="26" text-anchor="middle" fill="url(#neonGrad)" filter="url(#glow)">&lt;/&gt;</text>
    <rect x="24" y="54" width="52" height="4" rx="2" fill="#c7c7d1"/>
    <rect x="24" y="63" width="34" height="4" rx="2" fill="#c7c7d1"/>
    <rect x="24" y="72" width="44" height="4" rx="2" fill="#c7c7d1"/>
    <rect x="24" y="81" width="24" height="4" rx="2" fill="#c7c7d1"/>
  </g>
  <g transform="matrix(-1.2,0.65,0,1.3,300,105)">
    <line x1="18" y1="82" x2="82" y2="82" stroke="#c7c7d1" stroke-width="1.5"/>
    <line x1="18" y1="82" x2="18" y2="18" stroke="#c7c7d1" stroke-width="1.5"/>
    <rect x="26" y="64" width="9" height="18" fill="#c7c7d1"/>
    <rect x="40" y="52" width="9" height="30" fill="#c7c7d1"/>
    <rect x="54" y="38" width="9" height="44" fill="#c7c7d1"/>
    <rect x="68" y="24" width="9" height="58" fill="#c7c7d1"/>
    <polyline points="30,64 44,52 58,38 72,24 80,16" fill="none" stroke="url(#neonGrad)" stroke-width="3" stroke-linecap="round" stroke-linejoin="round" filter="url(#glow)"/>
  </g>
</svg>
